# xmcd
# 
# Track frame offsets:
#     150
#     18417
#     33413
#     46701
#     63773
#     82866
#     98597
#     114649
#     133650
#     151966
#     175125
# 
# Disc length: 2607
# 
# Revision: 2
# Processed by: cddbd v1.5.2PL0 Copyright (c) Steve Scherf et al.
# Submitted via: fre:ac v1.0.31
# 
DISCID=790a2d0b
DTITLE=Lee Fields and the Expressions - Emma Jean
DYEAR=2014
DGENRE=06.2-Soul
TTITLE0=Just Can't Win
TTITLE1=Magnolia
TTITLE2=Paralyzed
TTITLE3=Standing by Your Side
TTITLE4=Eye to Eye
TTITLE5=In the Woods
TTITLE6=All I Need
TTITLE7=Still Gets Me Down
TTITLE8=Talk to Somebody
TTITLE9=Stone Angel
TTITLE10=Don't Leave Me This Way
EXTD=
EXTT0=
EXTT1=
EXTT2=
EXTT3=
EXTT4=
EXTT5=
EXTT6=
EXTT7=
EXTT8=
EXTT9=
EXTT10=
PLAYORDER=
